<?xml version="1.0" encoding="UTF-8" standalone="no"?>
<!-- Created with Inkscape (http://www.inkscape.org/) -->

<svg width="180" height="180" viewBox="0 0 180 180" version="1.1" id="svg1" xml:space="preserve" xmlns:inkscape="http://www.inkscape.org/namespaces/inkscape" xmlns:sodipodi="http://sodipodi.sourceforge.net/DTD/sodipodi-0.dtd" xmlns="http://www.w3.org/2000/svg" xmlns:svg="http://www.w3.org/2000/svg"><sodipodi:namedview id="namedview1" pagecolor="#505050" bordercolor="#eeeeee" borderopacity="1" inkscape:showpageshadow="0" inkscape:pageopacity="0" inkscape:pagecheckerboard="0" inkscape:deskcolor="#d1d1d1" inkscape:document-units="px" showgrid="true"><inkscape:grid id="grid1" units="px" originx="0" originy="0" spacingx="1" spacingy="1" empcolor="#0099e5" empopacity="0.30196078" color="#0099e5" opacity="0.14901961" empspacing="5" dotted="false" gridanglex="30" gridanglez="30" visible="true" /></sodipodi:namedview><defs id="defs1" /><g inkscape:label="Layer 1" inkscape:groupmode="layer" id="layer1"><rect style="fill:#dfbf8c;fill-opacity:1;fill-rule:evenodd;stroke:#a56d4b;stroke-width:10.6;stroke-linejoin:round;stroke-miterlimit:3.2;stroke-dasharray:none;stroke-opacity:1;paint-order:fill markers stroke" id="rect1" width="149.39999" height="149.39999" x="15.3" y="15.3" ry="11.610626" /><g style="fill:#652020;fill-opacity:1;stroke-width:0.117394" id="g1" transform="matrix(8.5183401,0,0,8.5183401,21.298259,19.816599)"><path fill-rule="evenodd" clip-rule="evenodd" d="m 3,2 h 10 c 1.1046,0 2,0.89543 2,2 v 7.8483 c 0,0.6463 -0.3123,1.2527 -0.8383,1.628 l -2.0226,1.4433 c -0.634,0.4524 -1.2315,-0.3399 -0.9829,-1.078 0.2143,-0.6364 -0.377,-0.9634 -1.0486,-0.9634 H 3.00005 c -1.10456,0 -1.99999,-0.8955 -2,-2 L 1,4.00002 C 0.999992,2.89544 1.89542,2 3,2 Z M 9.73033,6.07391 V 6.06934 C 9.53136,5.64508 9.25694,5.27728 8.90709,4.966 H 8.90233 C 8.55565,4.66077 8.12401,4.42273 7.60728,4.25177 V 4.25635 C 7.10338,4.08545 6.52403,4 5.86937,4 H 3.14928 C 3.10753,4 3.07225,4.01373 3.04332,4.0412 3.01439,4.06866 2.99998,4.10223 2.99998,4.14191 v 6.71159 c 0,0.0427 0.01441,0.0778 0.04334,0.1053 C 3.07225,10.9863 3.10753,11 3.14928,11 H 5.82603 C 6.4807,11 7.0648,10.9115 7.57835,10.7345 8.10155,10.5574 8.54124,10.3133 8.89757,10.002 9.25694,9.68762 9.52977,9.31525 9.71593,8.88489 9.90526,8.45758 9.99998,7.98907 9.99998,7.47937 V 7.45648 c 0,-0.50055 -0.08984,-0.96136 -0.26965,-1.38257 z M 7.68907,7.48859 v 0.02288 c 0,0.4914 -0.16211,0.87446 -0.4862,1.14911 C 6.87547,8.92615 6.43895,9.0589 5.8933,9.0589 H 5.25304 V 5.94116 H 5.8933 c 0.54565,0 0.98217,0.13275 1.30957,0.39832 0.32409,0.27466 0.4862,0.65771 0.4862,1.14911 z M 12,11 c 0.5523,0 1,-0.4477 1,-1 0,-0.55228 -0.4477,-1 -1,-1 -0.5523,0 -1,0.44772 -1,1 0,0.5523 0.4477,1 1,1 z" fill="#e0e0e0" id="path1" style="fill:#652020;fill-opacity:1;stroke-width:0.117394" /></g></g></svg>
