<?xml version="1.0" encoding="UTF-8" standalone="no"?>
<!-- Created with Inkscape (http://www.inkscape.org/) -->

<svg width="180" height="180" viewBox="0 0 180 180" version="1.1" id="svg1" xml:space="preserve" inkscape:export-filename="template_icon.svg" inkscape:export-xdpi="96" inkscape:export-ydpi="96" xmlns:inkscape="http://www.inkscape.org/namespaces/inkscape" xmlns:sodipodi="http://sodipodi.sourceforge.net/DTD/sodipodi-0.dtd" xmlns="http://www.w3.org/2000/svg" xmlns:svg="http://www.w3.org/2000/svg"><sodipodi:namedview id="namedview1" pagecolor="#505050" bordercolor="#eeeeee" borderopacity="1" inkscape:showpageshadow="0" inkscape:pageopacity="0" inkscape:pagecheckerboard="0" inkscape:deskcolor="#d1d1d1" inkscape:document-units="px" showgrid="true" inkscape:zoom="3.166267" inkscape:cx="113.85647" inkscape:cy="82.115626" inkscape:window-width="1920" inkscape:window-height="1017" inkscape:window-x="-8" inkscape:window-y="-8" inkscape:window-maximized="1" inkscape:current-layer="svg1"><inkscape:grid id="grid1" units="px" originx="0" originy="0" spacingx="1" spacingy="1" empcolor="#0099e5" empopacity="0.30196078" color="#0099e5" opacity="0.14901961" empspacing="5" dotted="false" gridanglex="30" gridanglez="30" visible="true" /></sodipodi:namedview><defs id="defs1" /><rect style="fill:#dfbf8c;fill-opacity:1;fill-rule:evenodd;stroke:#a56d4b;stroke-width:10.6;stroke-linejoin:round;stroke-miterlimit:3.2;stroke-dasharray:none;stroke-opacity:1;paint-order:fill markers stroke" id="rect1" width="149.39999" height="149.39999" x="15.3" y="15.3" ry="11.610626" /><path fill-rule="evenodd" clip-rule="evenodd" d="m 46.853279,36.853279 h 85.183401 c 9.40936,0 17.03668,7.627577 17.03668,17.03668 v 66.854491 c 0,5.5054 -2.66028,10.67092 -7.14092,13.86786 l -17.2292,12.29452 c -5.40063,3.85369 -10.49033,-2.89539 -8.37268,-9.18277 1.82549,-5.42108 -3.21141,-8.20657 -8.93233,-8.20657 H 46.853705 c -9.409018,0 -17.036595,-7.62818 -17.03668,-17.03668 l -4.26e-4,-58.59068 c -6.8e-5,-9.409188 7.627492,-17.036851 17.03668,-17.036851 z M 104.18452,71.55623 V 71.5173 c -1.69489,-3.613991 -4.0325,-6.747036 -7.012639,-9.398625 h -0.04055 C 94.178195,59.518623 90.501339,57.490917 86.099657,56.034622 v 0.03901 C 81.807266,54.617852 76.872165,53.889959 71.295549,53.889959 H 48.124897 c -0.355641,0 -0.656168,0.116957 -0.902603,0.350956 -0.246436,0.233914 -0.369185,0.519874 -0.369185,0.857882 V 112.2704 c 0,0.36374 0.122749,0.66273 0.369185,0.89698 0.246435,0.23426 0.546962,0.35096 0.902603,0.35096 h 22.801467 c 5.576702,0 10.552264,-0.75387 14.926858,-2.26162 4.456795,-1.5086 8.202224,-3.58792 11.237564,-6.23968 3.061234,-2.678 5.385294,-5.849973 6.971074,-9.515926 1.61277,-3.639972 2.41963,-7.6309 2.41963,-11.972698 v -0.194984 c 0,-4.263856 -0.76529,-8.189192 -2.29697,-11.777202 z M 86.796372,83.606955 v 0.1949 c 0,4.185912 -1.380908,7.448948 -4.141617,9.78851 -2.788904,2.262215 -6.50733,3.393025 -11.155362,3.393025 H 66.04544 V 70.42542 h 5.453953 c 4.648032,0 8.366458,1.13081 11.155362,3.393026 2.760709,2.339647 4.141617,5.602597 4.141617,9.788509 z m 36.721968,29.911385 c 4.70468,0 8.51834,-3.81366 8.51834,-8.51834 0,-4.70451 -3.81366,-8.51834 -8.51834,-8.51834 -4.70468,0 -8.51834,3.81383 -8.51834,8.51834 0,4.70468 3.81366,8.51834 8.51834,8.51834 z" fill="#e0e0e0" id="path1" style="fill:#652020;fill-opacity:1;stroke-width:1" /></svg>
